<svg width="576.6400024414062px" height="124.439990234375px" xmlns="http://www.w3.org/2000/svg" viewBox="-38.32000122070309 12.780004882812499 576.6400024414062 124.439990234375" style="background: none;" preserveAspectRatio="xMidYMid"><defs><filter id="editing-vr"><feFlood flood-color="#f00" flood-opacity="0.7" result="c1"/><feFlood flood-color="#00f" flood-opacity="0.7" result="c3"/><feComposite operator="in" in="c1" in2="SourceAlpha" result="text-c1"/><feComposite operator="in" in="c3" in2="SourceAlpha" result="text-c3"/><feOffset in="text-c1" dx="5" dy="-1" result="text1"/><feOffset in="text-c3" dx="-5" dy="1" result="text3"/><feBlend in="SourceGraphic" in2="text1" mode="multiply" result="text4"/><feBlend in="text4" in2="text3" mode="multiply"/></filter></defs><g filter="url(#editing-vr)"><g transform="translate(46.830018162727356, 99)"><path d="M26.05-29.57L26.05-29.57L26.05-29.57Q27.01-31.49 27.01-33.28L27.01-33.28L27.01-33.28Q27.01-35.07 26.82-36.06L26.82-36.06L26.82-36.06Q26.62-37.06 26.18-37.82L26.18-37.82L26.18-37.82Q25.22-39.49 23.30-39.49L23.30-39.49L23.30-39.49Q20.93-39.49 19.01-37.76L19.01-37.76L19.01-37.76Q16.96-35.97 16.96-33.15L16.96-33.15L16.96-33.15Q16.96-31.36 18.21-29.98L18.21-29.98L18.21-29.98Q19.46-28.61 21.38-27.33L21.38-27.33L21.38-27.33Q23.30-26.05 25.47-24.77L25.47-24.77L25.47-24.77Q27.65-23.49 29.57-21.95L29.57-21.95L29.57-21.95Q33.98-18.43 33.98-13.70L33.98-13.70L33.98-13.70Q33.98-10.50 32.29-7.78L32.29-7.78L32.29-7.78Q30.59-5.06 27.78-3.07L27.78-3.07L27.78-3.07Q21.63 1.28 13.50 1.28L13.50 1.28L13.50 1.28Q6.91 1.28 3.52-0.86L3.52-0.86L3.52-0.86Q0.13-3.01 0.13-6.27L0.13-6.27L0.13-6.27Q0.13-12.10 4.67-13.57L4.67-13.57L4.67-13.57Q5.95-14.02 7.90-14.02L7.90-14.02L7.90-14.02Q9.86-14.02 12.10-13.18L12.10-13.18L12.10-13.18Q11.07-10.56 11.07-8.19L11.07-8.19L11.07-8.19Q11.07-3.07 14.72-3.07L14.72-3.07L14.72-3.07Q17.09-3.07 19.04-4.80L19.04-4.80L19.04-4.80Q20.99-6.53 20.99-8.48L20.99-8.48L20.99-8.48Q20.99-10.43 19.74-11.84L19.74-11.84L19.74-11.84Q18.50-13.25 16.64-14.37L16.64-14.37L16.64-14.37Q14.78-15.49 12.64-16.58L12.64-16.58L12.64-16.58Q10.50-17.66 8.64-19.20L8.64-19.20L8.64-19.20Q4.29-22.72 4.29-28.35L4.29-28.35L4.29-28.35Q4.29-32 6.08-34.85L6.08-34.85L6.08-34.85Q7.87-37.70 10.75-39.62L10.75-39.62L10.75-39.62Q16.51-43.52 23.58-43.52L23.58-43.52L23.58-43.52Q30.66-43.52 34.08-41.41L34.08-41.41L34.08-41.41Q37.50-39.30 37.50-35.71L37.50-35.71L37.50-35.71Q37.50-32.58 35.07-30.59L35.07-30.59L35.07-30.59Q32.96-28.93 30.40-28.93L30.40-28.93L30.40-28.93Q27.84-28.93 26.05-29.57ZM70.27-26.62L70.27-26.62L70.27-26.62Q70.27-23.94 68.03-22.27L68.03-22.27L68.03-22.27Q65.79-20.61 62.14-20.61L62.14-20.61L62.14-20.61Q60.61-20.61 59.71-21.06L59.71-21.06L59.71-21.06Q60.42-22.72 60.64-24.80L60.64-24.80L60.64-24.80Q60.86-26.88 60.86-27.46L60.86-27.46L60.86-27.46Q60.86-30.14 59.01-30.14L59.01-30.14L59.01-30.14Q57.73-30.14 56.29-28.54L56.29-28.54L56.29-28.54Q54.85-26.94 53.63-24.45L53.63-24.45L53.63-24.45Q50.94-18.69 50.94-12.86L50.94-12.86L50.94-12.86Q50.94-9.66 52.16-8.22L52.16-8.22L52.16-8.22Q53.38-6.78 56.06-6.78L56.06-6.78L56.06-6.78Q59.78-6.78 62.72-9.86L62.72-9.86L62.72-9.86Q63.55-10.82 64-11.90L64-11.90L64-11.90Q66.43-10.62 66.43-7.10L66.43-7.10L66.43-7.10Q66.43-3.52 62.46-1.15L62.46-1.15L62.46-1.15Q58.37 1.28 51.84 1.28L51.84 1.28L51.84 1.28Q38.85 1.28 38.85-12.48L38.85-12.48L38.85-12.48Q38.85-22.53 44.54-28.29L44.54-28.29L44.54-28.29Q50.05-33.92 60.16-33.92L60.16-33.92L60.16-33.92Q70.27-33.92 70.27-26.62ZM87.36-3.52L87.36-3.52L87.36-3.52Q85.38 1.28 79.04 1.28L79.04 1.28L79.04 1.28Q75.78 1.28 73.73-0.96L73.73-0.96L73.73-0.96Q72-2.94 72-4.93L72-4.93L72-4.93Q72-10.11 74.37-20.22L74.37-20.22L76.74-32.64L89.73-33.92L85.82-13.70L85.82-13.70Q84.74-8.96 84.74-7.30L84.74-7.30L84.74-7.30Q84.74-3.65 87.36-3.52ZM77.89-41.54L77.89-41.54L77.89-41.54Q77.89-44.03 79.97-45.38L79.97-45.38L79.97-45.38Q82.05-46.72 85.06-46.72L85.06-46.72L85.06-46.72Q88.06-46.72 89.89-45.38L89.89-45.38L89.89-45.38Q91.71-44.03 91.71-41.54L91.71-41.54L91.71-41.54Q91.71-39.04 89.70-37.76L89.70-37.76L89.70-37.76Q87.68-36.48 84.67-36.48L84.67-36.48L84.67-36.48Q81.66-36.48 79.78-37.76L79.78-37.76L79.78-37.76Q77.89-39.04 77.89-41.54ZM118.72-10.82L118.72-10.82L118.72-10.82Q120.32-9.73 120.32-7.33L120.32-7.33L120.32-7.33Q120.32-4.93 119.10-3.39L119.10-3.39L119.10-3.39Q117.89-1.86 115.90-0.83L115.90-0.83L115.90-0.83Q111.81 1.28 107.39 1.28L107.39 1.28L107.39 1.28Q102.98 1.28 100.38 0.32L100.38 0.32L100.38 0.32Q97.79-0.64 96.06-2.43L96.06-2.43L96.06-2.43Q92.67-5.82 92.67-12.03L92.67-12.03L92.67-12.03Q92.67-21.70 97.92-27.58L97.92-27.58L97.92-27.58Q103.55-33.92 113.34-33.92L113.34-33.92L113.34-33.92Q119.42-33.92 122.43-31.36L122.43-31.36L122.43-31.36Q124.67-29.44 124.67-26.30L124.67-26.30L124.67-26.30Q124.67-15.04 105.22-15.04L105.22-15.04L105.22-15.04Q104.96-13.38 104.96-11.97L104.96-11.97L104.96-11.97Q104.96-9.02 106.27-7.90L106.27-7.90L106.27-7.90Q107.58-6.78 110.02-6.78L110.02-6.78L110.02-6.78Q112.45-6.78 115.04-7.90L115.04-7.90L115.04-7.90Q117.63-9.02 118.72-10.82ZM105.66-17.79L105.66-17.79L105.66-17.79Q110.21-17.79 112.83-20.61L112.83-20.61L112.83-20.61Q115.46-23.30 115.46-27.58L115.46-27.58L115.46-27.58Q115.46-29.06 114.91-29.86L114.91-29.86L114.91-29.86Q114.37-30.66 113.28-30.66L113.28-30.66L113.28-30.66Q112.19-30.66 111.26-30.24L111.26-30.24L111.26-30.24Q110.34-29.82 109.38-28.42L109.38-28.42L109.38-28.42Q107.01-25.22 105.66-17.79ZM153.92 1.28L153.92 1.28L153.92 1.28Q146.18 1.28 146.18-4.74L146.18-4.74L146.18-4.74Q146.24-6.40 146.75-9.22L146.75-9.22L147.90-15.10L147.90-15.10Q149.63-23.42 149.63-25.28L149.63-25.28L149.63-25.28Q149.63-28.99 147.46-28.99L147.46-28.99L147.46-28.99Q143.81-28.99 141.89-19.46L141.89-19.46L138.11 0L125.25 1.28L131.90-32.70L142.40-33.92L141.38-27.65L141.38-27.65Q144.38-33.92 153.60-33.92L153.60-33.92L153.60-33.92Q158.08-33.92 159.97-32.03L159.97-32.03L159.97-32.03Q161.86-30.14 161.86-25.92L161.86-25.92L161.86-25.92Q161.86-21.95 159.81-12.67L159.81-12.67L159.81-12.67Q158.85-8.51 158.85-6.94L158.85-6.94L158.85-6.94Q158.85-5.38 159.71-4.48L159.71-4.48L159.71-4.48Q160.58-3.58 161.86-3.46L161.86-3.46L161.86-3.46Q161.22-1.28 159.01 0L159.01 0L159.01 0Q156.80 1.28 153.92 1.28ZM198.40-26.62L198.40-26.62L198.40-26.62Q198.40-23.94 196.16-22.27L196.16-22.27L196.16-22.27Q193.92-20.61 190.27-20.61L190.27-20.61L190.27-20.61Q188.74-20.61 187.84-21.06L187.84-21.06L187.84-21.06Q188.54-22.72 188.77-24.80L188.77-24.80L188.77-24.80Q188.99-26.88 188.99-27.46L188.99-27.46L188.99-27.46Q188.99-30.14 187.14-30.14L187.14-30.14L187.14-30.14Q185.86-30.14 184.42-28.54L184.42-28.54L184.42-28.54Q182.98-26.94 181.76-24.45L181.76-24.45L181.76-24.45Q179.07-18.69 179.07-12.86L179.07-12.86L179.07-12.86Q179.07-9.66 180.29-8.22L180.29-8.22L180.29-8.22Q181.50-6.78 184.19-6.78L184.19-6.78L184.19-6.78Q187.90-6.78 190.85-9.86L190.85-9.86L190.85-9.86Q191.68-10.82 192.13-11.90L192.13-11.90L192.13-11.90Q194.56-10.62 194.56-7.10L194.56-7.10L194.56-7.10Q194.56-3.52 190.59-1.15L190.59-1.15L190.59-1.15Q186.50 1.28 179.97 1.28L179.97 1.28L179.97 1.28Q166.98 1.28 166.98-12.48L166.98-12.48L166.98-12.48Q166.98-22.53 172.67-28.29L172.67-28.29L172.67-28.29Q178.18-33.92 188.29-33.92L188.29-33.92L188.29-33.92Q198.40-33.92 198.40-26.62ZM226.05-10.82L226.05-10.82L226.05-10.82Q227.65-9.73 227.65-7.33L227.65-7.33L227.65-7.33Q227.65-4.93 226.43-3.39L226.43-3.39L226.43-3.39Q225.22-1.86 223.23-0.83L223.23-0.83L223.23-0.83Q219.14 1.28 214.72 1.28L214.72 1.28L214.72 1.28Q210.30 1.28 207.71 0.32L207.71 0.32L207.71 0.32Q205.12-0.64 203.39-2.43L203.39-2.43L203.39-2.43Q200.00-5.82 200.00-12.03L200.00-12.03L200.00-12.03Q200.00-21.70 205.25-27.58L205.25-27.58L205.25-27.58Q210.88-33.92 220.67-33.92L220.67-33.92L220.67-33.92Q226.75-33.92 229.76-31.36L229.76-31.36L229.76-31.36Q232.00-29.44 232.00-26.30L232.00-26.30L232.00-26.30Q232.00-15.04 212.54-15.04L212.54-15.04L212.54-15.04Q212.29-13.38 212.29-11.97L212.29-11.97L212.29-11.97Q212.29-9.02 213.60-7.90L213.60-7.90L213.60-7.90Q214.91-6.78 217.34-6.78L217.34-6.78L217.34-6.78Q219.78-6.78 222.37-7.90L222.37-7.90L222.37-7.90Q224.96-9.02 226.05-10.82ZM212.99-17.79L212.99-17.79L212.99-17.79Q217.54-17.79 220.16-20.61L220.16-20.61L220.16-20.61Q222.78-23.30 222.78-27.58L222.78-27.58L222.78-27.58Q222.78-29.06 222.24-29.86L222.24-29.86L222.24-29.86Q221.70-30.66 220.61-30.66L220.61-30.66L220.61-30.66Q219.52-30.66 218.59-30.24L218.59-30.24L218.59-30.24Q217.66-29.82 216.70-28.42L216.70-28.42L216.70-28.42Q214.34-25.22 212.99-17.79ZM276.48-33.92L276.48-33.92L276.48-33.92Q271.30-33.92 267.52-35.65L267.52-35.65L265.47-25.28L277.82-25.28L277.82-25.28Q277.82-21.89 276.13-19.74L276.13-19.74L276.13-19.74Q274.43-17.60 271.36-17.60L271.36-17.60L271.36-17.60Q268.03-17.60 264.96-18.82L264.96-18.82L264.96-18.82Q264.32-19.07 264.26-19.14L264.26-19.14L260.61 0L246.66 0L254.78-42.24L283.33-42.24L283.33-42.24Q283.33-38.34 281.50-36.13L281.50-36.13L281.50-36.13Q279.68-33.92 276.48-33.92ZM284.06-1.92L284.06-1.92L284.06-1.92Q282.56-3.58 281.89-6.21L281.89-6.21L281.89-6.21Q281.22-8.83 281.22-13.12L281.22-13.12L281.22-13.12Q281.22-17.41 282.69-21.31L282.69-21.31L282.69-21.31Q284.16-25.22 286.85-28.03L286.85-28.03L286.85-28.03Q292.35-33.92 301.44-33.92L301.44-33.92L301.44-33.92Q304.70-33.92 307.07-32.83L307.07-32.83L318.02-33.92L313.28-8.96L313.28-8.96Q313.09-8.19 313.09-6.78L313.09-6.78L313.09-6.78Q313.09-5.38 313.95-4.48L313.95-4.48L313.95-4.48Q314.82-3.58 316.10-3.46L316.10-3.46L316.10-3.46Q315.46-1.28 313.12 0L313.12 0L313.12 0Q310.78 1.28 308.16 1.28L308.16 1.28L308.16 1.28Q305.54 1.28 303.78 0.29L303.78 0.29L303.78 0.29Q302.02-0.70 301.50-2.37L301.50-2.37L301.50-2.37Q300.48-0.77 298.30 0.26L298.30 0.26L298.30 0.26Q296.13 1.28 293.22 1.28L293.22 1.28L293.22 1.28Q290.30 1.28 287.94 0.51L287.94 0.51L287.94 0.51Q285.57-0.26 284.06-1.92ZM297.57-27.90L297.57-27.90L297.57-27.90Q296.83-26.75 296.19-24.80L296.19-24.80L296.19-24.80Q295.55-22.85 294.50-17.63L294.50-17.63L294.50-17.63Q293.44-12.42 293.44-8.70L293.44-8.70L293.44-8.70Q293.44-4.99 294.02-3.90L294.02-3.90L294.02-3.90Q294.59-2.82 295.62-2.82L295.62-2.82L295.62-2.82Q297.66-2.82 299.17-4.77L299.17-4.77L299.17-4.77Q300.67-6.72 301.25-10.18L301.25-10.18L304.64-28.93L304.64-28.93Q303.30-30.08 301.73-30.08L301.73-30.08L301.73-30.08Q300.16-30.08 299.23-29.57L299.23-29.57L299.23-29.57Q298.30-29.06 297.57-27.90ZM352.64-26.62L352.64-26.62L352.64-26.62Q352.64-23.94 350.40-22.27L350.40-22.27L350.40-22.27Q348.16-20.61 344.51-20.61L344.51-20.61L344.51-20.61Q342.98-20.61 342.08-21.06L342.08-21.06L342.08-21.06Q342.78-22.72 343.01-24.80L343.01-24.80L343.01-24.80Q343.23-26.88 343.23-27.46L343.23-27.46L343.23-27.46Q343.23-30.14 341.38-30.14L341.38-30.14L341.38-30.14Q340.10-30.14 338.66-28.54L338.66-28.54L338.66-28.54Q337.22-26.94 336.00-24.45L336.00-24.45L336.00-24.45Q333.31-18.69 333.31-12.86L333.31-12.86L333.31-12.86Q333.31-9.66 334.53-8.22L334.53-8.22L334.53-8.22Q335.74-6.78 338.43-6.78L338.43-6.78L338.43-6.78Q342.14-6.78 345.09-9.86L345.09-9.86L345.09-9.86Q345.92-10.82 346.37-11.90L346.37-11.90L346.37-11.90Q348.80-10.62 348.80-7.10L348.80-7.10L348.80-7.10Q348.80-3.52 344.83-1.15L344.83-1.15L344.83-1.15Q340.74 1.28 334.21 1.28L334.21 1.28L334.21 1.28Q321.22 1.28 321.22-12.48L321.22-12.48L321.22-12.48Q321.22-22.53 326.91-28.29L326.91-28.29L326.91-28.29Q332.42-33.92 342.53-33.92L342.53-33.92L342.53-33.92Q352.64-33.92 352.64-26.62ZM355.39-6.40L355.39-6.40L355.39-6.40Q355.39-8.13 356.29-12.48L356.29-12.48L359.68-29.76L355.90-29.76L356.16-31.68L356.16-31.68Q363.84-33.98 371.26-39.62L371.26-39.62L374.34-39.62L372.80-32.64L377.79-32.64L377.22-29.76L372.29-29.76L369.02-12.48L369.02-12.48Q368.19-8.51 368.19-7.17L368.19-7.17L368.19-7.17Q368.19-4.10 370.88-3.46L370.88-3.46L370.88-3.46Q370.24-1.28 367.94 0L367.94 0L367.94 0Q365.63 1.28 362.37 1.28L362.37 1.28L362.37 1.28Q359.10 1.28 357.25-0.77L357.25-0.77L357.25-0.77Q355.39-2.82 355.39-6.40ZM396.61-22.46L396.61-22.46L396.61-22.46Q397.50-24.83 397.50-26.88L397.50-26.88L397.50-26.88Q397.50-30.66 394.43-30.66L394.43-30.66L394.43-30.66Q392.83-30.66 391.52-29.22L391.52-29.22L391.52-29.22Q390.21-27.78 390.21-25.98L390.21-25.98L390.21-25.98Q390.21-24.70 391.23-23.68L391.23-23.68L391.23-23.68Q392.70-22.27 396.48-19.97L396.48-19.97L396.48-19.97Q400.26-17.66 401.70-15.78L401.70-15.78L401.70-15.78Q403.14-13.89 403.14-11.30L403.14-11.30L403.14-11.30Q403.14-8.70 401.89-6.34L401.89-6.34L401.89-6.34Q400.64-3.97 398.40-2.30L398.40-2.30L398.40-2.30Q393.60 1.28 385.92 1.28L385.92 1.28L385.92 1.28Q381.76 1.28 378.56-0.90L378.56-0.90L378.56-0.90Q375.36-3.01 375.36-5.50L375.36-5.50L375.36-5.50Q375.36-8 377.18-9.47L377.18-9.47L377.18-9.47Q379.01-10.94 381.70-10.94L381.70-10.94L381.70-10.94Q384.38-10.94 386.05-9.92L386.05-9.92L386.05-9.92Q385.22-7.81 385.22-6.40L385.22-6.40L385.22-6.40Q385.22-2.18 388.80-2.18L388.80-2.18L388.80-2.18Q390.34-2.18 391.36-3.14L391.36-3.14L391.36-3.14Q392.38-4.10 392.38-5.76L392.38-5.76L392.38-5.76Q392.38-9.02 386.88-12.48L386.88-12.48L386.88-12.48Q382.40-15.42 381.38-16.58L381.38-16.58L381.38-16.58Q379.65-18.62 379.65-21.18L379.65-21.18L379.65-21.18Q379.65-23.74 380.86-26.18L380.86-26.18L380.86-26.18Q382.08-28.61 384.32-30.34L384.32-30.34L384.32-30.34Q388.99-33.92 397.12-33.92L397.12-33.92L397.12-33.92Q401.28-33.92 403.74-32.26L403.74-32.26L403.74-32.26Q406.21-30.59 406.21-27.78L406.21-27.78L406.21-27.78Q406.21-24.96 404.51-23.36L404.51-23.36L404.51-23.36Q402.82-21.76 399.74-21.76L399.74-21.76L399.74-21.76Q397.63-21.76 396.61-22.46Z" fill="#444"/></g></g><style>text {
  font-size: 64px;
  font-family: Arial Black;
  dominant-baseline: central;
  text-anchor: middle;
}</style></svg>